<svg xmlns="http://www.w3.org/2000/svg" viewBox="0 0 32 32">
  <g transform="translate(2 2)scale(.4375)">
    <path fill="#fff" d="M57.067 28.61q-7.396-3.184-12.945-8.732q-5.547-5.546-8.732-12.944a38.4 38.4 0 0 1-1.97-5.824A1.464 1.464 0 0 0 32 .001c-.671 0-1.255.458-1.419 1.11a38.4 38.4 0 0 1-1.971 5.823q-3.186 7.397-8.732 12.944q-5.548 5.548-12.945 8.732a38.4 38.4 0 0 1-5.824 1.972A1.464 1.464 0 0 0 0 32c0 .67.458 1.255 1.11 1.418a38.4 38.4 0 0 1 5.823 1.972q7.396 3.184 12.945 8.732q5.55 5.546 8.732 12.944a38.4 38.4 0 0 1 1.971 5.824c.164.65.749 1.11 1.419 1.11s1.255-.458 1.419-1.11a38.4 38.4 0 0 1 1.971-5.823q3.185-7.395 8.732-12.944q5.548-5.548 12.945-8.732a38.4 38.4 0 0 1 5.824-1.972A1.464 1.464 0 0 0 64 32.001c0-.672-.458-1.255-1.11-1.42a38.4 38.4 0 0 1-5.823-1.97"/>
    <path fill="#4285f4" d="M32 0c-.671 0-1.255.458-1.419 1.11a38.4 38.4 0 0 1-1.971 5.824q-3.186 7.397-8.732 12.944q-5.548 5.548-12.945 8.732a38.4 38.4 0 0 1-5.824 1.972A1.464 1.464 0 0 0 0 32h64c0-.672-.458-1.255-1.11-1.42a38.4 38.4 0 0 1-5.823-1.97q-7.396-3.184-12.945-8.732q-5.547-5.546-8.732-12.944a38.4 38.4 0 0 1-1.97-5.824A1.464 1.464 0 0 0 32 0"/>
    <path fill="#34a853" d="M0 32c0 .67.458 1.255 1.11 1.418a38.4 38.4 0 0 1 5.823 1.972q7.396 3.184 12.945 8.732q5.55 5.546 8.732 12.944a38.4 38.4 0 0 1 1.971 5.824c.164.65.749 1.11 1.419 1.11V32z"/>
    <path fill="#fbbc04" d="M32 32v32c.67 0 1.255-.458 1.419-1.11a38.4 38.4 0 0 1 1.971-5.823q3.185-7.395 8.732-12.944q5.548-5.548 12.945-8.732a38.4 38.4 0 0 1 5.824-1.972A1.464 1.464 0 0 0 64 32z"/>
    <path fill="#ea4335" d="M0 32h64c0 .67-.458 1.255-1.11 1.418a38.4 38.4 0 0 0-5.823 1.972q-7.396 3.184-12.945 8.732q-5.548 5.546-8.732 12.944a38.4 38.4 0 0 0-1.971 5.824c-.164.65-.749 1.11-1.419 1.11V32z" opacity=".35"/>
  </g>
</svg>
